<?xml version="1.0" encoding="UTF-8"?>
<!-- Generator: Adobe Illustrator 19.0.0, SVG Export Plug-In . SVG Version: 6.00 Build 0)  -->
<svg version="1.1" id="Слой_1" xmlns="http://www.w3.org/2000/svg" xmlns:xlink="http://www.w3.org/1999/xlink" x="0px" y="0px" viewBox="0 0 184 33.7" style="enable-background:new 0 0 184 33.7;" xml:space="preserve">
<style type="text/css">
	.st0{fill-rule:evenodd;clip-rule:evenodd;fill:#2b71b1;}
</style>
<g id="XMLID_13_">
	<g id="XMLID_14_">
		<path id="XMLID_24_" class="st0" d="M88,18.7h-6.2v7.5H78V7.4h3.8V15H88V18.7z M89.1,7.4h3.8v18.9h-3.8v-7.5V15V7.4z"/>
		<path id="XMLID_20_" class="st0" d="M149.1,11.2V15h5.8c1,0,1.9-0.9,1.9-1.9c0-1-0.9-1.9-1.9-1.9H149.1z M149.1,26.3h-3.8v-7.5    V7.4h3.8h5.8c3.1,0,5.7,2.5,5.7,5.7v0c0,3.1-2.5,5.7-5.7,5.7h-5.8V26.3z M151.2,19.9l3.7,6.4h4.4l-3.7-6.4H151.2z"/>
		<path id="XMLID_17_" class="st0" d="M112.6,7.4h4.4l-10.9,18.9h-4.4L112.6,7.4z M103.3,7.4h-4.4l6.2,10.8l2.2-3.8L103.3,7.4z"/>
		<path id="XMLID_5_" class="st0" d="M122.9,7.4h7.6c4.2,0,7.6,3.4,7.6,7.6v3.7c0,4.2-3.4,7.6-7.6,7.6h-7.6v-3.8c2.5,0,5.1,0,7.6,0    c2.1,0,3.8-1.7,3.8-3.8V15c0-2.1-1.7-3.8-3.8-3.8h-3.8v10.2h-3.8V7.4z"/>
		<polygon id="XMLID_4_" class="st0" points="173.6,7.4 177.4,7.4 184,26.3 180.2,26.3 179.3,23.7 172.8,23.7 174.2,19.9 178,19.9     175.5,12.8 170.7,26.3 166.9,26.3   "/>
	</g>
	<g>
		<path id="XMLID_3_" class="st0" d="M31.7,33.7l10.7-17l10.5-6c-5.4,0-10.8,0-16.2,0l1.3,1.2L17.3,33.7h9l5.6-6.5l-4.2,6.5H31.7z"/>
		<polygon id="XMLID_2_" class="st0" points="49.1,33.7 52.6,27.5 63.7,21.5 49.4,21.5 49.3,21.5 47.5,21.5 48.3,22.3 43.4,26.4     34.7,33.7 44,33.7 48.1,29 45,33.7   "/>
		<polygon id="XMLID_1_" class="st0" points="14.4,33.7 32.3,6 42.2,0 25.9,0 27.6,1.6 0,33.7 8.6,33.7 15.8,25.3 10.3,33.7   "/>
	</g>
</g>
</svg>